@startuml

skinparam linetype ortho

entity "Patient" as pat {
  *NHS Number : number <<generated>>
}
package "Patient Flags API" {

entity "Patient Flag" as pfg {
  *patient : Patient
  *code : CodeableConcept
  *category : CodeableConcept
}

package "Additional Detail" as AD {

entity "Resource (Any)" as res {
}

}
}

pat ||--o{ pfg : has
pat ||--o{ res : provides
pfg ||..o{ res : details

@enduml
